<svg width="211" height="36" viewBox="0 0 211 36" fill="none" xmlns="http://www.w3.org/2000/svg">
<path d="M185.012 5.88129C185.012 5.32436 185.316 5.0459 185.925 5.0459H189.264C190.588 5.0459 191.607 5.59703 192.321 6.69928L198.015 15.3839L203.69 6.69928C204.417 5.59703 205.436 5.0459 206.748 5.0459H210.104C210.701 5.0459 211 5.32436 211 5.88129C211 6.13655 210.906 6.40922 210.719 6.69928L201.318 21.0924V28.4021C201.318 28.8546 201.154 29.2375 200.826 29.5508C200.51 29.8525 200.123 30.0033 199.666 30.0033H196.363C195.906 30.0033 195.514 29.8525 195.186 29.5508C194.858 29.2375 194.694 28.8546 194.694 28.4021V21.0924L185.31 6.69928C185.111 6.40922 185.012 6.13655 185.012 5.88129Z" fill="black"/>
<path d="M164.546 28.4021V6.73409C164.546 6.25838 164.71 5.85809 165.038 5.53321C165.366 5.20834 165.758 5.0459 166.215 5.0459H169.518C169.975 5.0459 170.362 5.20834 170.678 5.53321C171.006 5.85809 171.17 6.25838 171.17 6.73409V25.078H186.475C186.932 25.078 187.318 25.2404 187.635 25.5653C187.963 25.8902 188.127 26.2788 188.127 26.7314V28.3673C188.127 28.8198 187.963 29.2085 187.635 29.5334C187.318 29.8467 186.932 30.0033 186.475 30.0033H166.215C165.758 30.0033 165.366 29.8525 165.038 29.5508C164.71 29.2375 164.546 28.8546 164.546 28.4021Z" fill="black"/>
<path d="M136.26 23.6166C136.26 22.932 136.465 22.4447 136.875 22.1546C137.285 21.853 137.683 21.7021 138.07 21.7021H140.161C141.215 21.7021 142.018 22.2707 142.568 23.4077C143.119 24.5448 144.355 25.1133 146.276 25.1133L152.426 25.2352C154.488 25.2352 155.519 24.568 155.519 23.2337C155.519 22.2243 154.259 21.4295 151.741 20.8493C150.616 20.5825 149.374 20.3214 148.015 20.0662C146.657 19.7993 145.304 19.4686 143.956 19.0741C142.621 18.6796 141.391 18.2155 140.266 17.6818C139.142 17.1481 138.228 16.4171 137.525 15.4889C136.834 14.5491 136.489 13.4468 136.489 12.1821C136.489 9.84998 137.326 8.05736 139.001 6.80427C140.676 5.53957 143.558 4.90723 147.646 4.90723L152.11 5.01165C154.511 5.01165 156.672 5.62659 158.594 6.85648C160.526 8.07476 161.493 9.60052 161.493 11.4337C161.493 12.1183 161.288 12.6114 160.878 12.9131C160.468 13.2148 160.075 13.3656 159.701 13.3656H157.61C156.555 13.3656 155.753 12.7971 155.202 11.66C154.652 10.5113 153.416 9.937 151.495 9.937L146.206 9.83257C144.144 9.83257 143.113 10.4997 143.113 11.834C143.113 12.565 143.763 13.1626 145.063 13.6267C146.375 14.0908 147.957 14.5027 149.808 14.8623C151.67 15.2104 153.539 15.6339 155.413 16.1328C157.287 16.6318 158.875 17.4556 160.175 18.6042C161.487 19.7413 162.143 21.1626 162.143 22.8682C162.143 25.2004 161.3 26.9988 159.613 28.2635C157.938 29.5166 155.062 30.1431 150.985 30.1431L145.661 30.0387C143.259 30.0387 141.092 29.4295 139.159 28.2113C137.227 26.9814 136.26 25.4498 136.26 23.6166Z" fill="black"/>
<path d="M109.415 23.6166C109.415 22.932 109.62 22.4447 110.03 22.1546C110.44 21.853 110.839 21.7021 111.225 21.7021H113.316C114.371 21.7021 115.173 22.2707 115.724 23.4077C116.274 24.5448 117.51 25.1133 119.431 25.1133L125.581 25.2352C127.643 25.2352 128.674 24.568 128.674 23.2337C128.674 22.2243 127.414 21.4295 124.896 20.8493C123.771 20.5825 122.53 20.3214 121.171 20.0662C119.812 19.7993 118.459 19.4686 117.112 19.0741C115.776 18.6796 114.546 18.2155 113.422 17.6818C112.297 17.1481 111.383 16.4171 110.681 15.4889C109.989 14.5491 109.644 13.4468 109.644 12.1821C109.644 9.84998 110.481 8.05736 112.157 6.80427C113.832 5.53957 116.713 4.90723 120.802 4.90723L125.265 5.01165C127.666 5.01165 129.828 5.62659 131.749 6.85648C133.682 8.07476 134.648 9.60052 134.648 11.4337C134.648 12.1183 134.443 12.6114 134.033 12.9131C133.623 13.2148 133.231 13.3656 132.856 13.3656H130.765C129.711 13.3656 128.908 12.7971 128.357 11.66C127.807 10.5113 126.571 9.937 124.65 9.937L119.361 9.83257C117.299 9.83257 116.268 10.4997 116.268 11.834C116.268 12.565 116.918 13.1626 118.219 13.6267C119.531 14.0908 121.112 14.5027 122.963 14.8623C124.826 15.2104 126.694 15.6339 128.568 16.1328C130.443 16.6318 132.03 17.4556 133.33 18.6042C134.642 19.7413 135.298 21.1626 135.298 22.8682C135.298 25.2004 134.455 26.9988 132.768 28.2635C131.093 29.5166 128.217 30.1431 124.14 30.1431L118.816 30.0387C116.415 30.0387 114.248 29.4295 112.315 28.2113C110.382 26.9814 109.415 25.4498 109.415 23.6166Z" fill="black"/>
<path d="M85.2419 28.3325V6.66448C85.2419 6.21197 85.4059 5.82908 85.7339 5.51581C86.0619 5.20253 86.4544 5.0459 86.9112 5.0459H107.171C107.628 5.0459 108.015 5.20834 108.331 5.53321C108.659 5.85809 108.823 6.24678 108.823 6.69928V8.33527C108.823 8.78777 108.659 9.17646 108.331 9.50134C108.015 9.81461 107.628 9.97125 107.171 9.97125H91.8664V15.0358H105.045C105.502 15.0358 105.888 15.1983 106.205 15.5231C106.533 15.8364 106.697 16.2193 106.697 16.6718V18.3078C106.697 18.7603 106.533 19.149 106.205 19.4739C105.888 19.7871 105.502 19.9438 105.045 19.9438H91.8664V25.078H107.136C107.581 25.078 107.962 25.2346 108.278 25.5479C108.594 25.8611 108.753 26.244 108.753 26.6965V28.3673C108.753 28.8198 108.589 29.2085 108.261 29.5334C107.933 29.8467 107.54 30.0033 107.083 30.0033H86.9112C86.4544 30.0033 86.0619 29.8467 85.7339 29.5334C85.4059 29.2085 85.2419 28.8082 85.2419 28.3325Z" fill="black"/>
<path d="M56.7807 28.4021V6.73409C56.7807 6.25838 56.9447 5.85809 57.2727 5.53321C57.6007 5.20834 57.9932 5.0459 58.45 5.0459H68.2725C73.3565 5.0459 77.0524 6.05533 79.3601 8.0742C81.6796 10.0815 82.8393 13.2374 82.8393 17.542C82.8393 21.835 81.6796 24.9851 79.3601 26.9924C77.0524 28.9997 73.3565 30.0033 68.2725 30.0033H58.45C57.9932 30.0033 57.6007 29.8525 57.2727 29.5508C56.9447 29.2375 56.7807 28.8546 56.7807 28.4021ZM63.4052 25.078H68.0792C71.2304 25.078 73.3741 24.5094 74.5104 23.3724C75.6467 22.2353 76.2148 20.2919 76.2148 17.542C76.2148 14.7806 75.6467 12.8313 74.5104 11.6942C73.3741 10.5456 71.2304 9.97125 68.0792 9.97125H63.4052V25.078Z" fill="black"/>
<g clip-path="url(#clip0_logo_full)">
<path d="M47.8501 15.5859C47.6249 14.7595 47.281 14.0833 46.6578 13.8946C46.2842 12.717 45.7221 11.7579 44.7306 11.4696C44.4251 9.72068 43.9956 8.8209 43.444 8.03993C41.9427 5.91365 38.7656 3.75243 35.6967 2.40189C35.6741 2.39141 35.6496 2.38092 35.6252 2.37044C28.3842 -0.790147 20.1429 -0.790147 12.9019 2.37044C12.8774 2.38092 12.8547 2.39141 12.8303 2.40189C9.76143 3.75069 6.58258 5.9119 5.08306 8.03993C4.53143 8.8209 4.102 9.72068 3.79651 11.4678C2.7718 11.7579 2.14336 12.7432 1.85009 13.8981C1.21642 14.092 0.834116 14.7839 0.664787 15.5859C0.25281 17.7034 0.25281 19.8943 0.664787 22.0101C0.889977 22.8365 1.23387 23.5126 1.85707 23.7013C2.28302 25.0484 2.95859 26.1107 4.2399 26.2102C4.33242 26.5212 4.42844 26.8252 4.53317 27.1188C5.13717 28.8222 5.43917 29.9299 7.72774 31.6229C9.21853 32.7253 10.8176 33.4539 14.0226 34.0672C15.7037 34.3886 20.1219 34.9495 23.3165 34.8604C23.9484 34.8429 24.5804 34.8429 25.2123 34.8604C28.4069 34.9512 32.8269 34.3886 34.5062 34.0672C37.7112 33.4539 39.3103 32.7236 40.8011 31.6229C43.0914 29.9317 43.3916 28.8222 43.9956 27.1188C44.1004 26.8252 44.1964 26.5195 44.2889 26.2102C45.5702 26.1019 46.3331 25.01 46.6647 23.7013C47.2984 23.5074 47.6807 22.8155 47.8501 22.0136C48.262 19.8961 48.262 17.7051 47.8501 15.5893V15.5859ZM38.2088 23.8184C38.2088 26.9021 35.7107 29.4023 32.6296 29.4023C27.0627 29.867 21.4644 29.867 15.8974 29.4023C12.8163 29.4023 10.3183 26.9021 10.3183 23.8184V17.3103C10.3183 14.2266 12.8163 11.7264 15.8974 11.7264C21.4644 11.2617 27.0627 11.2617 32.6296 11.7264C35.7107 11.7264 38.2088 14.2266 38.2088 17.3103V23.8184Z" fill="black"/>
<path d="M15.5574 15.7158L17.0776 15.7158L17.0776 22.1005H15.5574L15.5574 15.7158Z" fill="black"/>
<path d="M19.5097 18.1481V19.6683L13.1251 19.6683L13.1251 18.1481L19.5097 18.1481Z" fill="black"/>
<ellipse cx="29.8756" cy="18.9082" rx="0.87064" ry="0.870646" fill="black"/>
<ellipse cx="34.5189" cy="18.9082" rx="0.87064" ry="0.870646" fill="black"/>
<ellipse cx="32.1972" cy="16.5865" rx="0.87064" ry="0.870646" fill="black"/>
<ellipse cx="32.1972" cy="21.23" rx="0.87064" ry="0.870646" fill="black"/>
</g>
<defs>
<clipPath id="clip0_logo_full">
<rect width="48.3912" height="34.8702" fill="white"/>
</clipPath>
</defs>
</svg>
